# xmcd CD database file
#
# Track frame offsets:
#	150
#	14700
#	32250
#	49500
#	65863
#	81105
#	105961
#	120711
#	135830
#	161198
#	173846
#
# Disc length: 2591 seconds
#
# Revision: 0
# Processed by: cddbd v1.5.1PL0 Copyright (c) Steve Scherf et al.
# Submitted via: CDex 1.51
#
DISCID=860a1d0b
DTITLE=Kid Dynamite - Explosion
DYEAR=2003
DGENRE=Jazz
TTITLE0=Something You Got
TTITLE1=Step Out On The Town
TTITLE2=The Blues Is Getting Green
TTITLE3=Members Only
TTITLE4=Them White Boys
TTITLE5=Strokin'
TTITLE6=Take The Guns Off The Street
TTITLE7=My Baby Snores
TTITLE8=Please, Leave
TTITLE9=You Ain't Satisfied
TTITLE10=God Bless The Blues
EXTD=YEAR: 2003
EXTT0=
EXTT1=
EXTT2=
EXTT3=
EXTT4=
EXTT5=
EXTT6=
EXTT7=
EXTT8=
EXTT9=
EXTT10=
PLAYORDER=
